<?xml version="1.0" encoding="UTF-8" standalone="no"?>
<!-- Created with Inkscape (http://www.inkscape.org/) -->

<svg
   width="400"
   height="150"
   viewBox="0 0 300 150"
   version="1.1"
   id="svg5"
   xmlns="http://www.w3.org/2000/svg"
   xmlns:svg="http://www.w3.org/2000/svg">
  <defs
     id="defs2" />
  <g
     id="layer1"
     transform="matrix(0.65137134,0,0,0.6347512,2.1168292,1.7434261)">
    <g
       id="g26660"
       transform="translate(-57.203599,367.17865)">
      <path
         style="fill:#df9031;fill-opacity:1;stroke:#000000;stroke-width:0.264583px;stroke-linecap:butt;stroke-linejoin:miter;stroke-opacity:1"
         d="m 64.07888,-358.5071 c 0,0 50.34746,-1.78652 54.24533,-1.78652 3.89787,0 77.95727,-1.4617 81.36791,-1.4617 3.41063,0 15.91629,-0.32482 19.97657,-0.32482 4.06028,0 49.21058,0 52.62122,-0.16241 3.41063,-0.16241 34.10634,0.32482 38.16662,0.32482 4.06028,0 21.60069,0.48723 24.52409,0.48723 2.9234,0 11.69362,0.48724 11.69362,0.48724 0,0 0,9.58226 0,12.66807 0,3.08581 -0.48726,24.52408 -0.48726,26.79784 0,2.27376 -0.64963,16.24117 -0.64963,19.48939 0,3.24823 -0.64965,15.26665 -0.81206,19.81416 -0.16241,4.54752 -3.08581,43.68861 -3.08581,46.12478 0,2.43616 -0.64965,9.58225 -0.81206,11.6936 -0.16241,2.11135 -1.13688,10.2319 -1.13688,10.2319 l -264.567698,-0.32482 c 0,0 -2.111346,-16.56594 -2.760991,-20.78863 -0.649645,-4.22269 -2.436169,-20.62622 -2.760991,-25.01132 -0.324823,-4.3851 -1.136879,-11.85601 -1.624112,-16.40353 -0.487234,-4.54751 -1.136878,-11.85601 -1.624112,-16.24111 -0.487233,-4.3851 -1.786522,-25.3362 -1.948934,-30.20853 -0.162411,-4.87234 -1.136878,-18.35246 -0.974467,-22.41274 0.162412,-4.06028 0.649645,-12.9929 0.649645,-12.9929 z"
         id="path136" />
      <path
         style="fill:#395a4b;fill-opacity:1;stroke:#000000;stroke-width:0.251px;stroke-linecap:butt;stroke-linejoin:miter;stroke-opacity:1"
         d="m 68.985538,-355.07311 c 0,0 48.590972,-1.66592 52.352852,-1.66592 3.76188,0 75.23755,-1.36303 78.52919,-1.36303 3.29163,0 15.36101,-0.30288 19.27964,-0.30288 3.91862,0 47.49373,0 50.78539,-0.15145 3.29164,-0.15144 32.91645,0.30289 36.83508,0.30289 3.91863,0 20.8471,0.45436 23.66852,0.45436 2.8214,0 11.28565,0.45433 11.28565,0.45433 0,0 0,8.93537 0,11.81286 0,2.87748 -0.47025,22.86848 -0.47025,24.98873 0,2.12027 -0.62697,15.14468 -0.62697,18.17363 0,3.02895 -0.62699,14.236 -0.78372,18.47652 -0.15676,4.24053 -2.97815,40.73923 -2.97815,43.01095 0,2.27169 -0.62701,8.93534 -0.78375,10.90417 -0.15673,1.9688 -1.09721,9.54113 -1.09721,9.54113 L 79.644201,-220.7397 c 0,0 -2.037678,-15.44759 -2.664657,-19.38521 -0.62698,-3.93761 -2.351185,-19.23375 -2.664668,-23.32282 -0.313496,-4.08907 -1.097224,-11.05562 -1.567458,-15.29614 -0.470231,-4.24052 -1.097211,-11.05563 -1.567444,-15.14469 -0.470244,-4.08906 -1.724203,-23.62572 -1.880941,-28.16913 -0.156748,-4.54341 -1.097224,-17.11349 -0.940475,-20.89967 0.156747,-3.78617 0.62698,-12.11575 0.62698,-12.11575 z"
         id="path54" />
    </g>
  </g>
</svg>
