<?xml version="1.0" encoding="UTF-8" standalone="no"?>
<svg
   width="210mm"
   height="297mm"
   viewBox="0 0 210 297"
   version="1.1"
   id="svg8"
   xmlns="http://www.w3.org/2000/svg"
   xmlns:svg="http://www.w3.org/2000/svg"
   xmlns:rdf="http://www.w3.org/1999/02/22-rdf-syntax-ns#"
   xmlns:cc="http://creativecommons.org/ns#"
   xmlns:dc="http://purl.org/dc/elements/1.1/">
  <defs
     id="defs2">
    <path
       d="M -0.4 605 H 1399.299951 V 936 H -0.4 V 605 Z"
       id="SVGID_3_" />
  </defs>
  <metadata
     id="metadata5">
    <rdf:RDF>
      <cc:Work
         rdf:about="">
        <dc:format>image/svg+xml</dc:format>
        <dc:type
           rdf:resource="http://purl.org/dc/dcmitype/StillImage" />
      </cc:Work>
    </rdf:RDF>
  </metadata>
  <rect
     style="fill:#8fd7ff;fill-opacity:0.580645;stroke:#000000;stroke-width:0;stroke-miterlimit:4;stroke-dasharray:none"
     id="rect2125"
     width="209.39882"
     height="188.23213"
     x="0.22677693"
     y="0.75595218" />
  <path
     d="M -221.49404,-80.508927 H 168.57739 V 150.05655 h -390.07143 z"
     fill="url(#SVGID_1_)"
     id="path564"
     style="stroke-width:0.256031" />
  <path
     d="m -42.47912,1.2712367 a 79.630293,67.240418 0 0 1 -79.63029,67.2404153 79.630293,67.240418 0 0 1 -79.6303,-67.2404153 79.630293,67.240418 0 0 1 79.6303,-67.2404187 79.630293,67.240418 0 0 1 79.63029,67.2404187 z"
     fill="url(#SVGID_2_)"
     id="path571"
     style="stroke-width:0.256031" />
  <path
     fill="url(#SVGID_5_)"
     d="m -112.16259,89.638981 c 33.824766,-0.635232 61.5477,10.798929 61.937771,25.550419 0.390071,14.72796 -26.719893,27.19731 -60.544661,27.80902 -33.82476,0.6117 -61.57556,-10.79894 -61.96563,-25.55042 -0.39007,-14.75148 26.74775,-27.173788 60.57252,-27.809019 z"
     id="path584"
     style="stroke-width:0.256031" />
  <path
     fill="url(#SVGID_6_)"
     d="M 13.106064,73.969939 C 50.803681,73.264127 81.675049,84.651238 82.06512,99.379195 82.455192,114.10715 52.196794,126.64709 14.499176,127.3529 -23.198441,128.05872 -54.069809,116.67161 -54.45988,101.94365 -54.849952,87.192163 -24.591554,74.675752 13.106064,73.969939 Z"
     id="path591"
     style="stroke-width:0.256031" />
  <g
     id="g1048">
    <g
       id="g617"
       transform="matrix(0.27862245,0,0,0.23527089,-223.83447,-112.12933)"
       style="fill:#f9f9f9">
      <g
         id="g615"
         style="fill:#f9f9f9">
        <linearGradient
           id="SVGID_7_"
           gradientUnits="userSpaceOnUse"
           x1="882.72369"
           y1="1076.748"
           x2="836.93988"
           y2="1185.559">
          <stop
             offset="0"
             style="stop-color:#FFFFFF"
             id="stop593" />
          <stop
             offset="0.3387"
             style="stop-color:#F4F4F5"
             id="stop595" />
          <stop
             offset="0.9275"
             style="stop-color:#D8D8DA"
             id="stop597" />
          <stop
             offset="0.995"
             style="stop-color:#D4D4D6"
             id="stop599" />
        </linearGradient>
        <path
           fill="url(#SVGID_7_)"
           d="m 1135.2,769.1 c -4.4,0 -8.6,0.8 -12.4,2.4 -6.5,-21.1 -26.1,-36.4 -49.3,-36.4 -16.9,0 -31.8,8.1 -41.2,20.6 -1.4,-1 -3,-1.9 -4.5,-2.7 -6.8,-7 -16.3,-11.3 -26.8,-11.3 -0.6,0 -1.2,0 -1.8,0 -5.9,-22 -26,-38.1 -49.8,-38.1 -28.5,0 -51.6,23.1 -51.6,51.6 0,6.1 1.1,12 3,17.4 -4.9,-2.3 -10.3,-3.6 -16.1,-3.6 -15.2,0 -28.3,9 -34.3,22 -1.4,-0.2 -2.8,-0.3 -4.2,-0.3 -14.3,0 -25.9,11.6 -25.9,25.9 0,14.3 11.6,25.9 25.9,25.9 6,0 11.5,-2 15.9,-5.5 6.3,4.7 14.1,7.5 22.6,7.5 4.6,0 9,-0.8 13,-2.3 6.8,14 21.2,23.7 37.8,23.7 11.3,0 21.6,-4.5 29.2,-11.8 4.6,2.3 9.8,3.7 15.3,3.7 18.7,0 33.8,-15.1 33.8,-33.8 0,0 0,-0.1 0,-0.1 6.8,-0.5 13.1,-2.8 18.5,-6.5 9.4,12.5 24.4,20.6 41.2,20.6 13.7,0 26.1,-5.3 35.3,-14 6.2,7.7 15.7,12.7 26.4,12.7 18.7,0 33.8,-15.1 33.8,-33.8 0,-18.7 -15.1,-33.8 -33.8,-33.8 z"
           id="path602"
           style="fill:#f9f9f9" />
        <linearGradient
           id="SVGID_8_"
           gradientUnits="userSpaceOnUse"
           x1="989.34943"
           y1="655.92682"
           x2="994.70068"
           y2="812.30542">
          <stop
             offset="0"
             style="stop-color:#FFFFFF"
             id="stop604" />
          <stop
             offset="0.3387"
             style="stop-color:#F4F4F5"
             id="stop606" />
          <stop
             offset="0.9275"
             style="stop-color:#D8D8DA"
             id="stop608" />
          <stop
             offset="0.995"
             style="stop-color:#D4D4D6"
             id="stop610" />
        </linearGradient>
        <path
           fill="url(#SVGID_8_)"
           d="m 1135.2,771.5 c -4.4,0 -8.6,0.8 -12.4,2.4 -6.5,-21.1 -26.1,-36.4 -49.3,-36.4 -16.9,0 -31.8,8.1 -41.2,20.6 -1.4,-1 -3,-1.9 -4.5,-2.7 -6.8,-7 -16.3,-11.3 -26.8,-11.3 -0.6,0 -1.2,0 -1.8,0 -5.9,-22 -26,-38.1 -49.8,-38.1 -28.5,0 -51.6,23.1 -51.6,51.6 0,6.1 1.1,12 3,17.4 -4.9,-2.3 -10.3,-3.6 -16.1,-3.6 -15.2,0 -28.3,9 -34.3,22 -1.4,-0.2 -2.8,-0.3 -4.2,-0.3 -14.3,0 -25.9,11.6 -25.9,25.9 0,14.3 11.7,26 26,26 6,0 11.5,-2 15.9,-5.5 6.3,4.7 14.1,7.5 22.6,7.5 4.6,0 9,-0.8 13,-2.3 6.8,14 21.2,23.7 37.8,23.7 11.3,0 21.6,-4.5 29.2,-11.8 4.6,2.3 9.8,3.6 15.3,3.6 18.7,0 33.8,-15.1 33.8,-33.8 0,0 0,-0.1 0,-0.1 6.8,-0.5 13.1,-2.8 18.5,-6.5 9.4,12.5 24.4,20.6 41.2,20.6 13.7,0 26.1,-5.3 35.3,-14 6.2,7.7 15.7,12.7 26.4,12.7 18.7,0 33.8,-15.1 33.8,-33.8 -0.1,-18.6 -15.2,-33.8 -33.9,-33.8 z"
           id="path613"
           style="fill:#f9f9f9" />
      </g>
    </g>
  </g>
  <path
     fill="url(#SVGID_13_)"
     d="m 107.08542,13.152414 c 0,0 -0.75228,-2.282127 3.39919,-1.646896 4.15147,0.635231 21.78828,11.763545 33.76904,10.704826 0,0 -5.65603,7.646303 -6.96556,14.586795 -1.28166,6.916964 -5.60031,13.292805 -7.55067,19.503957 -1.95036,6.211151 -3.45492,12.751682 -3.45492,12.751682 0,0 -4.31864,-1.646896 -15.96506,-4.728945 C 98.671018,61.241784 94.993202,61.406474 94.575268,63.241587 94.157335,65.0767 107.08542,13.152414 107.08542,13.152414 Z"
     id="path676"
     style="stroke-width:0.256031" />
  <path
     fill="url(#SVGID_14_)"
     d="m 121.51806,26.939288 c 0,0 2.39615,-4.070186 -5.04307,-6.54053 -7.43922,-2.470345 -8.94378,-4.964216 -9.38957,-7.246344 0,0 -8.915922,39.760781 -11.646422,45.924878 -2.758362,6.14057 6.631212,10.657771 8.748742,8.069792 2.08967,-2.58798 17.33032,-40.207796 17.33032,-40.207796 z"
     id="path683"
     style="stroke-width:0.256031" />
  <path
     fill="url(#SVGID_15_)"
     d="m -98.593676,36.420705 c 0,0 12.28725,28.985374 11.646418,53.500601 0,0 29.088184,7.034599 48.870378,-3.364374 19.782194,-10.398973 55.362281,-23.056547 65.727036,-20.280351 10.364755,2.776197 23.320699,5.128906 32.041582,0 8.748744,-5.128905 28.168729,-6.964018 31.40075,-1.952748 3.23202,5.01127 8.414398,8.281535 14.571952,6.916964 0,0 4.54155,-18.327602 9.72393,-30.208782 5.18237,-11.88118 6.15755,-14.092727 6.15755,-14.092727 0,0 -9.38958,-0.258798 -12.6216,-5.717082 C 105.6923,15.763921 96.637074,9.4586613 82.371605,14.117025 68.106136,18.775389 48.686151,22.751467 42.528595,18.304847 36.371038,13.858227 17.285401,11.129085 5.3046353,14.940473 -6.67613,18.751861 -46.797763,37.385316 -71.09364,37.832331 -84.578967,38.091129 -98.593676,36.420705 -98.593676,36.420705 Z"
     id="path694"
     style="stroke-width:0.256031" />
  <path
     fill="url(#SVGID_49_)"
     d="m 27.873054,65.782512 c 0,0 -1.086628,-3.270265 1.281663,-9.481416 2.368291,-6.187625 13.596776,-35.361215 11.228485,-36.984584 -2.368291,-1.646897 -18.779153,-7.293398 -34.5213218,-2.729143 -15.7421684,4.564256 -16.8287962,7.646304 -16.8287962,7.646304 0,0 7.9964646,-0.352906 10.58765334,13.292806 C 2.2119261,51.195717 2.8527578,62.48872 -1.0200943,67.782315 l -2.5911888,3.646699 c 0,0 19.4199851,-8.563861 31.4843371,-5.646502 z"
     id="path1040"
     style="stroke-width:0.256031" />
  <path
     fill="url(#SVGID_50_)"
     d="m 44.729712,20.8693 c 0,0 11.534969,3.364373 21.258893,-1.011665 l 3.566367,-1.011665 c 0,0 -11.980765,17.951169 -13.485326,29.879403 -1.504562,11.928234 2.145393,16.398381 1.393112,16.939504 -0.752281,0.541123 -5.516725,4.28193 -15.965066,2.540926 -10.448342,-1.741005 -12.398699,-3.105576 -12.398699,-3.105576 0,0 0.222898,-4.823053 4.430097,-17.857061 C 37.708426,34.256213 42.027074,20.210541 44.729712,20.8693 Z"
     id="path1047"
     style="stroke-width:0.256031" />
  <path
     fill="url(#SVGID_51_)"
     d="m 104.49423,17.95194 c 0,0 2.59119,3.411428 -2.25684,15.433771 -4.848035,12.022342 -14.571958,28.985373 -8.581576,33.62021 5.990383,4.658364 10.364756,3.55259 10.364756,3.55259 0,0 6.15756,-23.362399 10.19758,-32.796762 4.04003,-9.434362 4.37437,-8.610914 4.04003,-9.434362 -0.33435,-0.823448 -6.79839,-1.788059 -9.55675,-5.458285 -2.75837,-3.693753 -3.06485,-5.74061 -4.2072,-4.917162 z"
     id="path1054"
     style="stroke-width:0.256031" />
  <path
     fill="url(#SVGID_52_)"
     d="m 90.674554,14.022917 c 0.640832,0 9.278128,-1.999803 13.819676,3.929023 0,0 2.59119,4.281931 -4.541548,21.221435 -7.132735,16.939504 -9.751786,25.338675 -8.860194,25.150458 0.891592,-0.188217 0.891592,-5.293595 -6.659077,-5.105378 0,0 6.269005,-21.127326 6.046107,-29.714714 -0.222898,-8.587387 0.195036,-15.480824 0.195036,-15.480824 z"
     id="path1061"
     style="stroke-width:0.256031" />
  <path
     fill="url(#SVGID_53_)"
     d="m -41.977594,79.734076 c -8.163638,-14.563268 -7.996465,-32.255639 0.445795,-46.724799 -11.92504,4.587783 -25.131745,6.799329 -38.227,6.422896 9.110954,15.669041 11.841454,33.926062 7.578531,51.030256 12.78877,1.176354 26.079061,-2.117438 36.109469,-8.916767 -0.390071,1.105773 -2.228979,1.411625 -3.427056,0.846975 -1.225938,-0.541123 -1.922495,-1.623369 -2.479739,-2.658561 z"
     id="path1068"
     style="stroke-width:0.256031" />
  <path
     fill="url(#SVGID_54_)"
     d="m -84.801865,38.914577 c 14.571954,1.976275 29.506117,-0.682286 43.353653,-4.964216 13.847536,-4.305457 26.859204,-10.234284 40.4002555,-15.174972 -18.1104595,8.869712 -34.7999445,16.468962 -56.3931835,20.562675 -9.779648,1.835113 -21.453929,2.658561 -27.360725,-0.423487 z"
     id="path1075"
     style="stroke-width:0.256031" />
  <g
     id="g1032">
    <g
       id="g641"
       style="fill:#e3dbdb"
       transform="matrix(0.16859955,0,0,0.14796311,-129.16387,-42.251765)">
      <linearGradient
         id="SVGID_9_"
         gradientUnits="userSpaceOnUse"
         x1="380.6217"
         y1="738.72382"
         x2="320.98099"
         y2="880.46722">
        <stop
           offset="0"
           style="stop-color:#FFFFFF"
           id="stop619" />
        <stop
           offset="0.3387"
           style="stop-color:#F4F4F5"
           id="stop621" />
        <stop
           offset="0.9275"
           style="stop-color:#D8D8DA"
           id="stop623" />
        <stop
           offset="0.995"
           style="stop-color:#D4D4D6"
           id="stop625" />
      </linearGradient>
      <linearGradient
         id="SVGID_10_"
         gradientUnits="userSpaceOnUse"
         x1="357.0643"
         y1="898.43768"
         x2="343.12231"
         y2="721.06482"
         gradientTransform="translate(745,-300.8)">
        <stop
           offset="0"
           style="stop-color:#FFFFFF"
           id="stop630" />
        <stop
           offset="0.3387"
           style="stop-color:#F4F4F5"
           id="stop632" />
        <stop
           offset="0.9275"
           style="stop-color:#D8D8DA"
           id="stop634" />
        <stop
           offset="0.995"
           style="stop-color:#D4D4D6"
           id="stop636" />
      </linearGradient>
      <path
         fill="url(#SVGID_10_)"
         d="m 1262.2,470.6 c -7.4,0 -14.5,1.6 -20.9,4.5 -13.1,-15.4 -32.6,-25.1 -54.4,-25.1 -12.9,0 -25,3.4 -35.5,9.5 0,-0.8 0.1,-1.6 0.1,-2.5 0,-35.3 -28.6,-63.9 -63.9,-63.9 -24.3,0 -45.4,13.5 -56.2,33.5 -5.6,-1.4 -11.5,-2.1 -17.6,-2.1 -26.2,0 -49.2,13.7 -62.3,34.3 -6.9,-3.5 -14.7,-5.4 -22.9,-5.4 -28.1,0 -50.9,22.8 -50.9,50.9 0,28.1 22.8,50.9 50.9,50.9 10.8,0 20.8,-3.4 29,-9.1 13.5,15.9 33.7,26 56.2,26 1.9,0 3.8,-0.1 5.7,-0.2 9.2,28.9 36.2,49.8 68.1,49.8 27.5,0 51.4,-15.6 63.3,-38.4 10.6,6.2 22.9,9.7 36,9.7 21.7,0 41.1,-9.7 54.2,-25 6.4,2.9 13.5,4.5 21,4.5 28.1,0 50.9,-22.8 50.9,-50.9 0.1,-28.2 -22.7,-51 -50.8,-51 z"
         id="path639"
         style="fill:#e3dbdb" />
    </g>
    <path
       style="fill:#f9f9f9;fill-opacity:1;stroke:#000000;stroke-width:0;stroke-miterlimit:4;stroke-dasharray:none"
       d="m 48.36916,47.878297 c -1.448724,-0.766847 -3.314399,-2.427938 -4.145945,-3.691313 -1.179628,-1.792213 -2.202817,-2.377432 -4.655655,-2.662828 -1.729063,-0.201178 -4.129098,-1.067411 -5.33341,-1.924957 -1.495523,-1.064906 -2.535889,-1.34012 -3.281844,-0.86817 -2.162675,1.368283 -6.558029,0.788035 -8.889175,-1.173495 -2.857467,-2.404402 -3.532018,-5.035905 -2.033636,-7.933455 1.591618,-3.077851 5.162617,-4.816818 8.722467,-4.247574 2.053034,0.328292 3.087925,0.130171 3.799657,-0.727416 1.69571,-2.043203 5.152724,-3.40007 8.851842,-3.474319 2.513991,-0.05046 3.853034,-0.47161 4.517996,-1.420977 0.519782,-0.742093 2.473402,-1.93294 4.341376,-2.646326 2.937949,-1.122013 3.859061,-1.167504 6.825072,-0.337073 3.895185,1.090584 7.168047,4.410009 7.168047,7.270023 0,1.753676 0.170836,1.831823 2.834822,1.296766 4.194575,-0.842473 7.722373,-0.419854 10.582685,1.26777 1.399151,0.825521 3.907547,1.500947 5.57421,1.500947 5.334622,0 8.159094,2.385853 8.198527,6.92536 0.01892,2.178701 -0.470876,3.18407 -2.301816,4.724702 -2.251771,1.894742 -3.690602,2.282349 -7.354303,1.981184 -0.958466,-0.07879 -2.639436,0.444339 -3.735491,1.162502 -2.910993,1.907355 -6.562198,2.529703 -10.133576,1.727269 -2.822741,-0.634227 -3.341137,-0.515829 -5.104333,1.165821 -3.863121,3.684447 -9.806176,4.542351 -14.447517,2.085559 z"
       id="path2135" />
  </g>
  <g
     id="g1017">
    <g
       id="g665"
       transform="matrix(0.20030142,0,0,0.17159814,-2.9319402,-57.32925)"
       style="fill:#cccccc">
      <linearGradient
         id="SVGID_11_"
         gradientUnits="userSpaceOnUse"
         x1="774.50031"
         y1="712.0835"
         x2="714.85968"
         y2="853.82678">
        <stop
           offset="0"
           style="stop-color:#FFFFFF"
           id="stop643" />
        <stop
           offset="0.3387"
           style="stop-color:#F4F4F5"
           id="stop645" />
        <stop
           offset="0.9275"
           style="stop-color:#D8D8DA"
           id="stop647" />
        <stop
           offset="0.995"
           style="stop-color:#D4D4D6"
           id="stop649" />
      </linearGradient>
      <path
         fill="url(#SVGID_11_)"
         d="m 951.8,659 c -2.5,0 -5,0.2 -7.4,0.6 0,-0.2 0,-0.4 0,-0.6 0,-25.8 -19.8,-46.9 -45,-49 2.1,-5.4 3.2,-11.3 3.2,-17.4 0,-27.2 -22,-49.2 -49.2,-49.2 -27.2,0 -49.2,22 -49.2,49.2 0,0.2 0,0.4 0,0.6 -8.6,-7.5 -19.9,-12 -32.2,-12 -22.8,0 -42,15.6 -47.6,36.7 -12.7,-12 -29.9,-19.4 -48.8,-19.4 -33.1,0 -60.8,22.6 -68.7,53.2 -0.7,0 -1.5,-0.1 -2.2,-0.1 -28.1,0 -50.9,22.8 -50.9,50.9 0,28.1 22.8,50.9 50.9,50.9 16.5,0 31.1,-7.8 40.4,-20 9.3,4.4 19.6,6.9 30.5,6.9 14,0 27,-4.1 38,-11.1 8.8,13.5 24,22.4 41.2,22.4 22.9,0 42.1,-15.6 47.6,-36.8 5.7,2.4 12,3.7 18.6,3.7 0.3,0 0.5,0 0.8,0 -0.5,2.9 -0.8,5.8 -0.8,8.8 0,27.2 22,49.2 49.2,49.2 21.7,0 40.1,-14 46.6,-33.5 8.9,8.9 21.2,14.3 34.7,14.3 27.2,0 49.2,-22 49.2,-49.2 C 1001,681 979,659 951.8,659 Z"
         id="path652"
         style="fill:#cccccc" />
      <linearGradient
         id="SVGID_12_"
         gradientUnits="userSpaceOnUse"
         x1="804.0838"
         y1="785.70068"
         x2="744.44318"
         y2="612.97522">
        <stop
           offset="0"
           style="stop-color:#FFFFFF"
           id="stop654" />
        <stop
           offset="0.3387"
           style="stop-color:#F4F4F5"
           id="stop656" />
        <stop
           offset="0.9275"
           style="stop-color:#D8D8DA"
           id="stop658" />
        <stop
           offset="0.995"
           style="stop-color:#D4D4D6"
           id="stop660" />
      </linearGradient>
      <path
         fill="url(#SVGID_12_)"
         d="m 951.8,662.1 c -2.5,0 -5,0.2 -7.4,0.6 0,-0.2 0,-0.4 0,-0.6 0,-25.8 -19.8,-46.9 -45,-49 2.1,-5.4 3.2,-11.3 3.2,-17.4 0,-27.2 -22,-49.2 -49.2,-49.2 -27.2,0 -49.2,22 -49.2,49.2 0,0.2 0,0.4 0,0.6 -8.6,-7.5 -19.9,-12 -32.2,-12 -22.8,0 -42,15.6 -47.6,36.7 -12.7,-12 -29.9,-19.4 -48.8,-19.4 -33.1,0 -60.8,22.6 -68.7,53.2 -0.7,0 -1.5,-0.1 -2.2,-0.1 -28.1,0 -50.9,22.8 -50.9,50.9 0,28.1 22.8,50.9 50.9,50.9 16.5,0 31.1,-7.8 40.4,-20 9.3,4.4 19.6,6.9 30.5,6.9 14,0 27,-4.1 38,-11.1 8.8,13.5 24,22.4 41.2,22.4 22.9,0 42.1,-15.6 47.6,-36.8 5.7,2.4 12,3.7 18.6,3.7 0.3,0 0.5,0 0.8,0 -0.5,2.9 -0.8,5.8 -0.8,8.8 0,27.2 22,49.2 49.2,49.2 21.7,0 40.1,-14 46.6,-33.5 8.9,8.9 21.2,14.3 34.7,14.3 27.2,0 49.2,-22 49.2,-49.2 0.3,-27.1 -21.7,-49.1 -48.9,-49.1 z"
         id="path663"
         style="fill:#cccccc" />
    </g>
    <path
       style="fill:#f9f9f9;fill-opacity:1;stroke:#000000;stroke-width:0;stroke-miterlimit:4;stroke-dasharray:none"
       d="m 164.34405,73.160664 c -1.81754,-1.817537 -2.57024,-3.256526 -2.57024,-4.913691 0,-2.011447 -0.27466,-2.343451 -1.93869,-2.343451 -1.21626,0 -2.63395,0.82628 -3.8045,2.217393 -3.45832,4.10999 -9.96937,4.825564 -14.12989,1.552901 -1.59744,-1.256549 -2.24683,-1.355014 -4.27459,-0.648132 -1.31505,0.458428 -4.4923,0.681511 -7.06056,0.49574 -3.69954,-0.2676 -5.18954,-0.03096 -7.17273,1.139142 -3.69144,2.178002 -9.3862,1.497309 -12.36102,-1.477505 -4.85205,-4.852048 -3.05995,-11.168904 3.86655,-13.628979 2.5729,-0.913818 4.39925,-2.169035 5.50595,-3.784166 3.73443,-5.450044 11.92379,-7.433196 18.48774,-4.477033 l 3.15767,1.422098 1.97972,-2.352762 c 2.73219,-3.247025 7.19485,-4.40622 11.08308,-2.878881 l 2.90773,1.14219 1.01648,-2.401184 c 1.5295,-3.613052 3.79493,-5.225325 7.89588,-5.619374 6.22638,-0.598276 11.17893,3.500075 10.57256,8.749041 -0.20264,1.754082 0.17493,2.182159 2.78945,3.162604 2.32743,0.872784 3.372,1.86753 4.53572,4.319331 1.13373,2.388643 1.95604,3.192256 3.28753,3.212799 4.59757,0.07093 9.18568,4.238069 9.18568,8.342871 0,6.093986 -8.58302,10.415373 -14.34814,7.224016 -1.73998,-0.963191 -2.08016,-0.852455 -4.72687,1.538693 -2.52909,2.284881 -3.33098,2.576576 -7.08312,2.576576 -3.80397,0 -4.49065,-0.259498 -6.80139,-2.570237 z"
       id="path2137" />
  </g>
  <g
     id="g1052"
     transform="matrix(0.86647918,0,0,0.935113,8.4986048,8.097281)">
    <path
       style="fill:#00ff00;stroke:#000000;stroke-width:0.30038px;stroke-linecap:butt;stroke-linejoin:miter;stroke-opacity:1"
       d="m 120.19175,137.88161 c 0,0 -65.85994,-53.681746 -129.2501395,56.36581 129.2501495,-5.34752 129.2501495,-3.565 129.2501495,-3.565 z"
       id="path10" />
    <path
       style="fill:#00ff00;stroke:#000000;stroke-width:0.287607px;stroke-linecap:butt;stroke-linejoin:miter;stroke-opacity:1"
       d="m 18.97704,199.14137 c 27.595532,-5.39167 41.408001,-21.67092 51.982095,-31.3469 10.574095,-9.676 32.348445,-33.43248 63.546275,-37.20337 31.19783,-3.77091 97.61441,62.85162 97.61441,62.85162"
       id="path14" />
  </g>
</svg>
